<?xml version="1.0" encoding="UTF-8" standalone="no"?>
<svg
   width="191.70363pt"
   height="44.1105pt"
   viewBox="0 0 191.70363 44.1105"
   version="1.2"
   id="svg409"
   sodipodi:docname="AtmosSci_PartMC-Graphic.eps"
   inkscape:version="1.2.1 (9c6d41e410, 2022-07-14)"
   xmlns:inkscape="http://www.inkscape.org/namespaces/inkscape"
   xmlns:sodipodi="http://sodipodi.sourceforge.net/DTD/sodipodi-0.dtd"
   xmlns="http://www.w3.org/2000/svg"
   xmlns:svg="http://www.w3.org/2000/svg">
  <defs
     id="defs413" />
  <sodipodi:namedview
     id="namedview411"
     pagecolor="#ffffff"
     bordercolor="#666666"
     borderopacity="1.0"
     inkscape:showpageshadow="2"
     inkscape:pageopacity="0.0"
     inkscape:pagecheckerboard="0"
     inkscape:deskcolor="#d1d1d1"
     inkscape:document-units="pt"
     showgrid="false"
     inkscape:zoom="2.9131944"
     inkscape:cx="128.20977"
     inkscape:cy="29.520858"
     inkscape:window-width="1920"
     inkscape:window-height="1011"
     inkscape:window-x="0"
     inkscape:window-y="32"
     inkscape:window-maximized="1"
     inkscape:current-layer="svg409" />
  <g
     id="surface26738"
     transform="translate(-12.147927,-85.9447)">
    <path
       style="fill:#f04c19;fill-opacity:1;fill-rule:nonzero;stroke:none"
       d="m 55.847656,103.625 c -0.265625,-1.76562 -0.765625,-3.50391 -1.503906,-5.160156 -1.917969,-4.304688 -5.292969,-7.800782 -9.53125,-9.867188 l -8.789062,18.027344 19.824218,-3"
       id="path390" />
    <path
       style="fill:#263875;fill-opacity:1;fill-rule:nonzero;stroke:none"
       d="m 56.035156,111.03516 c 0.03516,-0.23047 0.07813,-0.45703 0.101563,-0.6836 0.07031,-0.65625 0.117187,-1.3164 0.125,-1.98047 L 34.203125,107.99609 43.875,88.167969 C 43.277344,87.875 42.664062,87.613281 42.046875,87.378906 c -0.207031,-0.07813 -0.417969,-0.136718 -0.625,-0.210937 -0.417969,-0.144531 -0.832031,-0.289063 -1.257813,-0.40625 -0.25,-0.07422 -0.507812,-0.121094 -0.761718,-0.183594 -0.382813,-0.09375 -0.769532,-0.191406 -1.15625,-0.265625 -0.277344,-0.05078 -0.554688,-0.08203 -0.832032,-0.121094 -0.371093,-0.05469 -0.742187,-0.113281 -1.117187,-0.148437 -0.289063,-0.02734 -0.578125,-0.03906 -0.867187,-0.05469 -0.367188,-0.01953 -0.730469,-0.04297 -1.097657,-0.04297 -0.296875,-0.0039 -0.589843,0.01172 -0.886719,0.02344 -0.359374,0.01172 -0.722656,0.02344 -1.085937,0.05469 -0.296875,0.02344 -0.59375,0.0625 -0.894531,0.101562 -0.355469,0.04297 -0.710938,0.08984 -1.066406,0.152344 -0.300782,0.05469 -0.597657,0.117187 -0.894532,0.183594 -0.351562,0.07422 -0.703125,0.15625 -1.050781,0.25 -0.296875,0.08203 -0.589844,0.171874 -0.878906,0.261718 -0.34375,0.109375 -0.6875,0.222656 -1.023438,0.347656 -0.285156,0.105469 -0.566406,0.21875 -0.847656,0.335938 -0.328125,0.136719 -0.65625,0.28125 -0.976563,0.4375 -0.273437,0.128906 -0.546874,0.261719 -0.8125,0.402344 -0.316406,0.167968 -0.625,0.34375 -0.929687,0.523437 -0.261719,0.15625 -0.519531,0.308594 -0.773437,0.476563 -0.296876,0.191406 -0.589844,0.398437 -0.875,0.605468 -0.246094,0.175782 -0.492188,0.347657 -0.726563,0.535157 -0.28125,0.21875 -0.554687,0.453125 -0.824219,0.6875 -0.226562,0.195312 -0.453125,0.390625 -0.671875,0.59375 -0.265625,0.246093 -0.515625,0.507812 -0.769531,0.769531 -0.203125,0.214844 -0.414062,0.421875 -0.609375,0.644531 -0.246094,0.273438 -0.472656,0.5625 -0.703125,0.847657 -0.1875,0.230468 -0.375,0.457031 -0.550781,0.691406 -0.230469,0.308594 -0.4375,0.632812 -0.652344,0.953125 -0.152344,0.234375 -0.316406,0.460937 -0.460937,0.699219 -0.21875,0.355468 -0.410157,0.722656 -0.605469,1.089843 -0.117188,0.21875 -0.246094,0.429688 -0.351563,0.648438 -0.214844,0.4375 -0.40625,0.886719 -0.589844,1.335937 -0.06641,0.160156 -0.144531,0.3125 -0.207031,0.476563 -0.234375,0.61328 -0.445312,1.23437 -0.625,1.86719 -0.04297,0.15234 -0.07031,0.3125 -0.109375,0.46484 -0.125,0.48047 -0.25,0.96094 -0.34375,1.44922 -0.04297,0.23828 -0.07031,0.48437 -0.109375,0.72266 -0.0625,0.41015 -0.128906,0.8164 -0.171875,1.22656 -0.02734,0.27344 -0.03125,0.54687 -0.05078,0.82031 -0.02344,0.38281 -0.05078,0.76563 -0.05469,1.15234 -0.0039,0.28907 0.01562,0.57813 0.02344,0.86719 0.01172,0.3711 0.01953,0.74219 0.04687,1.11328 0.02344,0.29688 0.06641,0.58594 0.101562,0.87891 0.04297,0.36719 0.08594,0.73437 0.152344,1.10156 0.04687,0.28906 0.113282,0.57813 0.175782,0.86719 0.07812,0.35937 0.15625,0.71875 0.25,1.07422 0.07812,0.28906 0.167968,0.57422 0.253906,0.85937 0.109375,0.34375 0.21875,0.6875 0.339844,1.02344 0.105468,0.28516 0.21875,0.5625 0.332031,0.83984 0.136719,0.33204 0.277343,0.65625 0.429687,0.98047 0.128906,0.27344 0.265625,0.54297 0.402344,0.8125 0.164062,0.3125 0.335938,0.625 0.515625,0.92969 0.152344,0.26172 0.308594,0.51953 0.472656,0.77344 0.191407,0.30078 0.390625,0.58984 0.597657,0.8789 0.175781,0.25 0.355468,0.4961 0.542968,0.73829 0.21875,0.27734 0.441406,0.55078 0.671875,0.8164 0.199219,0.23438 0.402344,0.46485 0.613281,0.69141 0.242188,0.26172 0.496094,0.51172 0.75,0.76172 0.21875,0.21484 0.4375,0.42578 0.664063,0.6289 0.273437,0.2461 0.554687,0.47657 0.84375,0.71094 0.226563,0.18359 0.453125,0.37109 0.691406,0.54688 0.300781,0.22656 0.613281,0.43359 0.925781,0.64453 0.238282,0.16015 0.472657,0.32422 0.714844,0.47265 0.324219,0.19922 0.660156,0.37891 0.992188,0.5625 0.246094,0.13282 0.484375,0.27344 0.734375,0.39844 0.355469,0.17188 0.714843,0.32812 1.078125,0.48437 0.242187,0.10157 0.476562,0.21875 0.722656,0.3125 0.398438,0.15625 0.808594,0.28516 1.214844,0.41797 0.21875,0.0703 0.429687,0.15235 0.648437,0.21875 0.523438,0.15235 1.054688,0.27344 1.585938,0.38672 0.113281,0.0234 0.21875,0.0586 0.332031,0.0781 0.648438,0.1289 1.300781,0.22265 1.957031,0.29297 0.1875,0.0195 0.378907,0.0195 0.566407,0.0352 0.46875,0.0352 0.941406,0.0703 1.417968,0.0781 0.238282,0.004 0.472656,-0.0156 0.710938,-0.0195 0.425781,-0.008 0.851562,-0.0117 1.277344,-0.0469 0.261718,-0.0195 0.527343,-0.0586 0.789062,-0.0898 0.394531,-0.043 0.789062,-0.0859 1.175781,-0.15235 0.28125,-0.0469 0.558594,-0.11328 0.839844,-0.17187 0.367187,-0.0742 0.730469,-0.14844 1.089844,-0.24219 0.285156,-0.0742 0.566406,-0.16797 0.847656,-0.25391 0.347656,-0.10546 0.691406,-0.21093 1.03125,-0.33203 0.285156,-0.10156 0.5625,-0.21875 0.839844,-0.33203 0.328125,-0.13281 0.660156,-0.26953 0.984375,-0.42187 0.273437,-0.125 0.542968,-0.26563 0.816406,-0.40235 0.3125,-0.16406 0.625,-0.32812 0.929688,-0.50781 0.269531,-0.15234 0.53125,-0.3164 0.789062,-0.48047 0.296875,-0.1914 0.589844,-0.38281 0.878906,-0.58593 0.253906,-0.17969 0.5,-0.36329 0.746094,-0.55079 0.28125,-0.21875 0.558594,-0.4414 0.828125,-0.67187 0.230469,-0.19531 0.457031,-0.39844 0.679687,-0.60156 0.265626,-0.2461 0.527344,-0.5 0.78125,-0.75782 0.207032,-0.21484 0.414063,-0.42968 0.617188,-0.65234 0.242188,-0.26953 0.476562,-0.55078 0.707031,-0.83203 0.191407,-0.23047 0.378907,-0.46094 0.558594,-0.69922 0.214844,-0.28906 0.421875,-0.58984 0.625,-0.88672 0.164063,-0.24609 0.335937,-0.49219 0.492187,-0.74219 0.191407,-0.30859 0.367188,-0.6289 0.539063,-0.94531 0.144531,-0.25781 0.292969,-0.51172 0.425781,-0.77734 0.164063,-0.32422 0.308594,-0.66016 0.457032,-0.9961 0.117187,-0.26562 0.242187,-0.53125 0.347656,-0.80078 0.136718,-0.34375 0.253906,-0.69922 0.371094,-1.04687 0.09375,-0.27735 0.195312,-0.54688 0.273437,-0.82422 0.109375,-0.36719 0.195313,-0.74219 0.285156,-1.11719 0.0625,-0.26953 0.136719,-0.53515 0.191407,-0.80469 0.08594,-0.42187 0.140624,-0.84765 0.199218,-1.27343"
       id="path392" />
    <path
       style="fill:#429ed9;fill-opacity:1;fill-rule:nonzero;stroke:none"
       d="m 56.261719,107.59766 c 0.0078,-0.57032 -0.0078,-1.14063 -0.04687,-1.70703 -0.01172,-0.1875 -0.04297,-0.3711 -0.05859,-0.5586 -0.03516,-0.35937 -0.07031,-0.71875 -0.125,-1.07422 l -19.824219,3 20.054688,0.33985"
       id="path394" />
    <path
       style="fill:#263875;fill-opacity:1;fill-rule:nonzero;stroke:none"
       d="m 179.37109,118.98438 -0.0273,-12.64063 -6.74609,11.26563 h -1.70313 l -6.75,-11.08985 v 13.4375 h -3.63672 V 99.417969 h 3.14063 l 8.15625,13.613281 8.00781,-13.613281 h 3.14062 l 0.0312,20.539061 h -2.63671 c -0.53907,0 -0.97266,-0.43359 -0.97657,-0.97265"
       id="path396" />
    <path
       style="fill:#263875;fill-opacity:1;fill-rule:nonzero;stroke:none"
       d="m 184.72266,109.6875 c 0,-6.13281 4.6914,-10.5625 11,-10.5625 3.34375,0 6.22265,1.20313 8.1289,3.43359 l -2.46484,2.32032 c -1.4961,-1.61719 -3.34375,-2.41016 -5.48828,-2.41016 -4.25391,0 -7.33203,2.99609 -7.33203,7.21875 0,4.22656 3.07812,7.21875 7.33203,7.21875 2.14453,0 3.99218,-0.79297 5.48828,-2.43359 l 2.46484,2.34375 c -1.90625,2.23047 -4.78515,3.43359 -8.15625,3.43359 -6.28125,0 -10.97265,-4.42969 -10.97265,-10.5625"
       id="path398" />
    <path
       style="fill:#429ed9;fill-opacity:1;fill-rule:nonzero;stroke:none"
       d="m 82.640625,103.23047 c 0,-3.671876 -2.382813,-5.816408 -7.105469,-5.816408 H 69.242188 V 109 h 6.292968 c 4.722656,0 7.105469,-2.14453 7.105469,-5.76953 z m 7.820313,0 c 0,7.44141 -5.578126,12.06641 -14.496094,12.06641 H 69.242188 V 124.5 H 61.519531 V 91.121094 h 14.445313 c 8.917968,0 14.496094,4.625 14.496094,12.109376"
       id="path400" />
    <path
       style="fill:#429ed9;fill-opacity:1;fill-rule:nonzero;stroke:none"
       d="m 108.09375,116.39063 v -2.6211 h -5.10547 c -3.480468,0 -4.578124,1.28906 -4.578124,3.00391 0,1.85937 1.574219,3.09765 4.199224,3.09765 2.48046,0 4.625,-1.14062 5.48437,-3.48046 z m 7.4375,-6.53125 V 124.5 h -6.96484 v -3.19531 c -1.37891,2.33594 -4.05078,3.57812 -7.81641,3.57812 -6.011719,0 -9.585938,-3.33984 -9.585938,-7.77343 0,-4.53125 3.195313,-7.67969 11.015628,-7.67969 h 5.91406 c 0,-3.19531 -1.91016,-5.05469 -5.91406,-5.05469 -2.718752,0 -5.531252,0.90625 -7.390628,2.38672 l -2.671874,-5.19922 c 2.8125,-2.003906 6.960937,-3.097656 11.062502,-3.097656 7.82031,0 12.35156,3.621096 12.35156,11.394536"
       id="path402" />
    <path
       style="fill:#429ed9;fill-opacity:1;fill-rule:nonzero;stroke:none"
       d="m 134.65625,98.464844 v 6.863286 c -0.62109,-0.0469 -1.09766,-0.0937 -1.66797,-0.0937 -4.10156,0 -6.82031,2.24218 -6.82031,7.15234 V 124.5 h -7.4375 V 98.84375 h 7.10547 v 3.38672 c 1.8125,-2.48047 4.86328,-3.765626 8.82031,-3.765626"
       id="path404" />
    <path
       style="fill:#429ed9;fill-opacity:1;fill-rule:nonzero;stroke:none"
       d="m 157.42969,122.54688 c -1.52735,1.09765 -4.65235,2.33593 -6.94141,2.33593 -6.05859,0 -9.58594,-3.10156 -9.58594,-9.20703 v -10.53515 h -3.95703 v -5.722661 h 3.95703 v -6.246094 h 7.4375 v 6.246094 h 6.39063 v 5.722661 h -6.39063 v 10.4414 c 0,2.19141 1.19141,3.38672 3.19532,3.38672 1.09765,0 2.32031,-0.69531 3.13281,-1.31641 l 2.76172,4.89454"
       id="path406" />
  </g>
</svg>
