<?xml version="1.0" encoding="UTF-8" standalone="no"?>
<svg
   width="199.758728pt"
   height="41.651222pt"
   viewBox="0 0 199.758728 41.651222"
   version="1.2"
   id="svg56"
   sodipodi:docname="AtmosSci_PyPartMC-Graphic.pdf"
   inkscape:version="1.2.1 (9c6d41e410, 2022-07-14)"
   xmlns:inkscape="http://www.inkscape.org/namespaces/inkscape"
   xmlns:sodipodi="http://sodipodi.sourceforge.net/DTD/sodipodi-0.dtd"
   xmlns="http://www.w3.org/2000/svg"
   xmlns:svg="http://www.w3.org/2000/svg">
  <sodipodi:namedview
     id="namedview58"
     pagecolor="#ffffff"
     bordercolor="#666666"
     borderopacity="1.0"
     inkscape:showpageshadow="2"
     inkscape:pageopacity="0.0"
     inkscape:pagecheckerboard="0"
     inkscape:deskcolor="#d1d1d1"
     inkscape:document-units="pt"
     showgrid="false"
     inkscape:zoom="5.1061599"
     inkscape:cx="130.33278"
     inkscape:cy="27.809548"
     inkscape:window-width="1920"
     inkscape:window-height="1011"
     inkscape:window-x="0"
     inkscape:window-y="32"
     inkscape:window-maximized="1"
     inkscape:current-layer="svg56" />
  <defs
     id="defs11">
    <clipPath
       id="clip1">
      <path
         d="M 108 33 L 125 33 L 125 41.652344 L 108 41.652344 Z M 108 33 "
         id="path2" />
    </clipPath>
    <clipPath
       id="clip2">
      <path
         d="M 177 30 L 199.757812 30 L 199.757812 41.652344 L 177 41.652344 Z M 177 30 "
         id="path5" />
    </clipPath>
    <clipPath
       id="clip3">
      <path
         d="M 160 33 L 178 33 L 178 41.652344 L 160 41.652344 Z M 160 33 "
         id="path8" />
    </clipPath>
  </defs>
  <g
     id="surface3518">
    <g
       clip-path="url(#clip1)"
       clip-rule="nonzero"
       id="g15">
      <path
         style=" stroke:none;fill-rule:nonzero;fill:rgb(21.960449%,39.99939%,61.959839%);fill-opacity:1;"
         d="M 113.957031 34.390625 C 115.84375 34.941406 117.644531 35.601562 119.613281 35.90625 C 120.914062 36.039062 122.226562 36.070312 123.535156 36.03125 L 124.875 40.992188 C 121.46875 41.203125 118.035156 41.035156 114.886719 40 C 112.9375 39.363281 110.957031 38.789062 108.945312 38.308594 L 109.765625 33.304688 C 111.199219 33.625 112.601562 33.992188 113.957031 34.390625 "
         id="path13" />
    </g>
    <path
       style=" stroke:none;fill-rule:nonzero;fill:rgb(98.03772%,81.959534%,13.725281%);fill-opacity:1;"
       d="M 125.90625 35.890625 C 130.976562 35.378906 135.894531 34.230469 140.878906 33.347656 L 142.445312 38.171875 C 138.898438 38.792969 135.386719 39.582031 131.835938 40.152344 C 130.121094 40.429688 128.335938 40.691406 126.527344 40.863281 L 125.199219 35.945312 C 125.4375 35.929688 125.671875 35.910156 125.90625 35.890625 "
       id="path17" />
    <path
       style=" stroke:none;fill-rule:nonzero;fill:rgb(21.960449%,39.99939%,61.959839%);fill-opacity:1;"
       d="M 143.578125 32.902344 C 146.515625 32.457031 149.46875 32.191406 152.457031 32.414062 C 154.855469 32.59375 157.191406 32.976562 159.492188 33.503906 L 158.671875 38.515625 C 157.113281 38.121094 155.539062 37.789062 153.921875 37.5625 C 151.816406 37.324219 149.714844 37.257812 147.597656 37.425781 C 146.410156 37.550781 145.234375 37.714844 144.0625 37.902344 L 142.492188 33.070312 C 142.855469 33.011719 143.214844 32.957031 143.578125 32.902344 "
       id="path19" />
    <path
       style=" stroke:none;fill-rule:nonzero;fill:rgb(98.03772%,81.959534%,13.725281%);fill-opacity:1;"
       d="M 108.15625 32.960938 L 107.339844 37.949219 C 106.09375 37.6875 104.839844 37.460938 103.570312 37.289062 C 101.320312 37.03125 99.046875 36.941406 96.785156 37.113281 C 95.667969 37.238281 94.5625 37.429688 93.484375 37.703125 L 91.636719 32.921875 C 96.878906 31.546875 102.6875 31.882812 108.15625 32.960938 "
       id="path21" />
    <g
       clip-path="url(#clip2)"
       clip-rule="nonzero"
       id="g25">
      <path
         style=" stroke:none;fill-rule:nonzero;fill:rgb(21.960449%,39.99939%,61.959839%);fill-opacity:1;"
         d="M 183.464844 35.425781 C 184.21875 33.695312 186.214844 32.003906 188.980469 30.984375 C 193.367188 29.371094 198.023438 30.058594 199.382812 32.519531 C 200.742188 34.980469 198.292969 38.285156 193.90625 39.898438 C 190.890625 41.007812 187.742188 41.03125 185.628906 40.132812 C 183.484375 40.621094 181.289062 40.984375 179.082031 41.234375 L 177.21875 36.421875 C 179.324219 36.191406 181.414062 35.867188 183.464844 35.425781 "
         id="path23" />
    </g>
    <path
       style=" stroke:none;fill-rule:nonzero;fill:rgb(21.960449%,39.99939%,61.959839%);fill-opacity:1;"
       d="M 86.3125 35.175781 C 86.519531 34.988281 86.761719 34.820312 87.035156 34.675781 C 88.019531 34.164062 89.039062 33.738281 90.085938 33.386719 L 91.941406 38.183594 C 91.917969 38.191406 91.890625 38.199219 91.867188 38.210938 C 91.238281 38.457031 90.628906 38.734375 90.039062 39.042969 C 89.980469 39.074219 89.914062 39.101562 89.851562 39.128906 C 87.042969 40.503906 78.460938 41.238281 78.492188 39.300781 C 78.648438 37.945312 82.359375 38.015625 86.3125 35.175781 "
       id="path27" />
    <g
       clip-path="url(#clip3)"
       clip-rule="nonzero"
       id="g31">
      <path
         style=" stroke:none;fill-rule:nonzero;fill:rgb(98.03772%,81.959534%,13.725281%);fill-opacity:1;"
         d="M 162.59375 34.304688 C 165.535156 35.152344 168.445312 36.085938 171.523438 36.53125 C 172.859375 36.664062 174.207031 36.648438 175.546875 36.566406 L 177.425781 41.417969 C 175.621094 41.597656 173.773438 41.734375 171.980469 41.589844 C 169.019531 41.351562 166.183594 40.652344 163.394531 39.832031 C 162.351562 39.527344 161.3125 39.222656 160.269531 38.9375 L 161.09375 33.894531 C 161.59375 34.027344 162.097656 34.160156 162.59375 34.304688 "
         id="path29" />
    </g>
    <path
       style=" stroke:none;fill-rule:nonzero;fill:rgb(94.116211%,29.803467%,9.803772%);fill-opacity:1;"
       d="M 33.660156 13.617188 C 33.457031 12.257812 33.070312 10.917969 32.503906 9.644531 C 31.027344 6.328125 28.425781 3.632812 25.160156 2.042969 L 18.390625 15.929688 L 33.660156 13.617188 "
       id="path33" />
    <path
       style=" stroke:none;fill-rule:nonzero;fill:rgb(14.901733%,21.960449%,45.881653%);fill-opacity:1;"
       d="M 33.804688 19.324219 C 33.832031 19.148438 33.867188 18.976562 33.886719 18.800781 C 33.9375 18.292969 33.972656 17.785156 33.980469 17.273438 L 16.988281 16.984375 L 24.4375 1.710938 C 23.976562 1.484375 23.507812 1.285156 23.03125 1.101562 C 22.871094 1.042969 22.707031 0.996094 22.546875 0.941406 C 22.226562 0.832031 21.90625 0.71875 21.582031 0.625 C 21.386719 0.570312 21.1875 0.535156 20.992188 0.484375 C 20.695312 0.414062 20.402344 0.339844 20.101562 0.285156 C 19.890625 0.246094 19.675781 0.21875 19.460938 0.1875 C 19.175781 0.144531 18.890625 0.101562 18.601562 0.0742188 C 18.378906 0.0507812 18.15625 0.046875 17.933594 0.03125 C 17.652344 0.015625 17.367188 0 17.085938 0 C 16.859375 -0.00390625 16.632812 0.0078125 16.402344 0.015625 C 16.125 0.0234375 15.847656 0.0351562 15.570312 0.0585938 C 15.339844 0.078125 15.109375 0.109375 14.878906 0.136719 C 14.605469 0.171875 14.332031 0.207031 14.058594 0.253906 C 13.828125 0.296875 13.597656 0.34375 13.367188 0.394531 C 13.097656 0.453125 12.828125 0.515625 12.558594 0.589844 C 12.332031 0.652344 12.105469 0.71875 11.882812 0.789062 C 11.617188 0.875 11.351562 0.960938 11.09375 1.058594 C 10.875 1.140625 10.65625 1.226562 10.441406 1.316406 C 10.1875 1.421875 9.933594 1.535156 9.6875 1.652344 C 9.476562 1.753906 9.269531 1.855469 9.0625 1.964844 C 8.820312 2.09375 8.582031 2.230469 8.347656 2.367188 C 8.144531 2.484375 7.945312 2.605469 7.75 2.734375 C 7.519531 2.882812 7.296875 3.039062 7.074219 3.199219 C 6.886719 3.335938 6.699219 3.46875 6.515625 3.613281 C 6.296875 3.785156 6.089844 3.960938 5.878906 4.144531 C 5.707031 4.292969 5.53125 4.441406 5.363281 4.597656 C 5.160156 4.789062 4.964844 4.992188 4.773438 5.191406 C 4.613281 5.355469 4.453125 5.519531 4.300781 5.6875 C 4.113281 5.898438 3.9375 6.121094 3.757812 6.34375 C 3.617188 6.519531 3.46875 6.691406 3.335938 6.875 C 3.160156 7.113281 2.996094 7.359375 2.835938 7.609375 C 2.714844 7.789062 2.589844 7.964844 2.476562 8.148438 C 2.308594 8.421875 2.160156 8.707031 2.011719 8.988281 C 1.921875 9.152344 1.824219 9.316406 1.738281 9.488281 C 1.574219 9.824219 1.429688 10.171875 1.285156 10.515625 C 1.234375 10.640625 1.175781 10.757812 1.128906 10.882812 C 0.945312 11.355469 0.785156 11.835938 0.648438 12.320312 C 0.613281 12.4375 0.589844 12.558594 0.558594 12.679688 C 0.464844 13.050781 0.371094 13.421875 0.296875 13.796875 C 0.261719 13.980469 0.242188 14.167969 0.214844 14.355469 C 0.164062 14.667969 0.113281 14.980469 0.0820312 15.296875 C 0.0585938 15.507812 0.0546875 15.71875 0.0429688 15.929688 C 0.0234375 16.222656 0.00390625 16.519531 0 16.816406 C -0.00390625 17.039062 0.0117188 17.261719 0.015625 17.484375 C 0.0234375 17.769531 0.03125 18.058594 0.0546875 18.34375 C 0.0742188 18.570312 0.105469 18.792969 0.132812 19.019531 C 0.164062 19.300781 0.199219 19.585938 0.246094 19.867188 C 0.285156 20.09375 0.335938 20.3125 0.382812 20.535156 C 0.441406 20.8125 0.503906 21.089844 0.574219 21.363281 C 0.636719 21.585938 0.703125 21.804688 0.773438 22.023438 C 0.855469 22.289062 0.941406 22.554688 1.035156 22.8125 C 1.113281 23.03125 1.203125 23.246094 1.289062 23.460938 C 1.394531 23.714844 1.503906 23.96875 1.621094 24.214844 C 1.71875 24.425781 1.824219 24.632812 1.929688 24.839844 C 2.058594 25.082031 2.1875 25.320312 2.328125 25.558594 C 2.445312 25.757812 2.566406 25.957031 2.691406 26.152344 C 2.839844 26.382812 2.992188 26.609375 3.152344 26.832031 C 3.289062 27.023438 3.425781 27.210938 3.570312 27.398438 C 3.738281 27.613281 3.910156 27.820312 4.089844 28.027344 C 4.242188 28.210938 4.398438 28.386719 4.558594 28.5625 C 4.746094 28.761719 4.941406 28.957031 5.140625 29.148438 C 5.308594 29.3125 5.476562 29.476562 5.648438 29.632812 C 5.859375 29.820312 6.078125 30 6.296875 30.179688 C 6.476562 30.320312 6.652344 30.46875 6.832031 30.601562 C 7.0625 30.777344 7.304688 30.9375 7.542969 31.097656 C 7.726562 31.21875 7.910156 31.347656 8.097656 31.460938 C 8.347656 31.613281 8.605469 31.753906 8.859375 31.894531 C 9.050781 31.996094 9.234375 32.105469 9.425781 32.203125 C 9.699219 32.335938 9.976562 32.453125 10.257812 32.574219 C 10.441406 32.65625 10.625 32.742188 10.8125 32.816406 C 11.121094 32.9375 11.433594 33.035156 11.75 33.136719 C 11.917969 33.191406 12.082031 33.257812 12.25 33.304688 C 12.652344 33.421875 13.058594 33.515625 13.46875 33.601562 C 13.554688 33.621094 13.640625 33.648438 13.726562 33.664062 C 14.222656 33.761719 14.726562 33.835938 15.234375 33.890625 C 15.378906 33.90625 15.523438 33.90625 15.667969 33.917969 C 16.03125 33.945312 16.394531 33.972656 16.761719 33.976562 C 16.945312 33.980469 17.128906 33.964844 17.308594 33.960938 C 17.636719 33.957031 17.964844 33.953125 18.292969 33.925781 C 18.496094 33.910156 18.699219 33.878906 18.902344 33.855469 C 19.207031 33.824219 19.507812 33.789062 19.808594 33.738281 C 20.023438 33.703125 20.238281 33.652344 20.453125 33.609375 C 20.734375 33.550781 21.015625 33.492188 21.292969 33.417969 C 21.511719 33.359375 21.730469 33.292969 21.945312 33.226562 C 22.214844 33.144531 22.480469 33.0625 22.742188 32.96875 C 22.960938 32.890625 23.171875 32.800781 23.386719 32.714844 C 23.640625 32.609375 23.894531 32.507812 24.144531 32.390625 C 24.355469 32.292969 24.566406 32.183594 24.773438 32.078125 C 25.015625 31.953125 25.257812 31.824219 25.492188 31.6875 C 25.699219 31.570312 25.898438 31.441406 26.101562 31.316406 C 26.328125 31.171875 26.554688 31.019531 26.777344 30.863281 C 26.972656 30.726562 27.160156 30.585938 27.351562 30.441406 C 27.566406 30.273438 27.78125 30.101562 27.988281 29.925781 C 28.167969 29.773438 28.339844 29.617188 28.511719 29.460938 C 28.71875 29.269531 28.917969 29.074219 29.113281 28.875 C 29.273438 28.710938 29.433594 28.542969 29.589844 28.375 C 29.777344 28.164062 29.957031 27.949219 30.136719 27.734375 C 30.28125 27.554688 30.425781 27.378906 30.5625 27.195312 C 30.730469 26.972656 30.890625 26.742188 31.046875 26.511719 C 31.171875 26.320312 31.304688 26.132812 31.425781 25.9375 C 31.570312 25.703125 31.707031 25.457031 31.84375 25.214844 C 31.953125 25.015625 32.066406 24.816406 32.167969 24.613281 C 32.292969 24.363281 32.40625 24.101562 32.519531 23.84375 C 32.609375 23.640625 32.707031 23.4375 32.789062 23.226562 C 32.894531 22.964844 32.980469 22.691406 33.074219 22.421875 C 33.144531 22.210938 33.222656 22 33.285156 21.785156 C 33.371094 21.503906 33.433594 21.214844 33.503906 20.925781 C 33.554688 20.71875 33.609375 20.515625 33.652344 20.304688 C 33.71875 19.980469 33.761719 19.652344 33.804688 19.324219 "
       id="path35" />
    <path
       style=" stroke:none;fill-rule:nonzero;fill:rgb(25.881958%,61.959839%,85.096741%);fill-opacity:1;"
       d="M 33.980469 16.679688 C 33.984375 16.238281 33.972656 15.800781 33.945312 15.363281 C 33.933594 15.21875 33.910156 15.078125 33.898438 14.933594 C 33.871094 14.65625 33.84375 14.378906 33.804688 14.105469 L 18.53125 16.417969 L 33.980469 16.679688 "
       id="path37" />
    <path
       style=" stroke:none;fill-rule:nonzero;fill:rgb(14.901733%,21.960449%,45.881653%);fill-opacity:1;"
       d="M 177.9375 25.449219 L 177.914062 15.710938 L 172.714844 24.390625 L 171.40625 24.390625 L 166.207031 15.847656 L 166.207031 26.199219 L 163.40625 26.199219 L 163.40625 10.378906 L 165.824219 10.378906 L 172.105469 20.863281 L 178.277344 10.378906 L 180.695312 10.378906 L 180.71875 26.199219 L 178.6875 26.199219 C 178.273438 26.199219 177.9375 25.863281 177.9375 25.449219 "
       id="path39" />
    <path
       style=" stroke:none;fill-rule:nonzero;fill:rgb(14.901733%,21.960449%,45.881653%);fill-opacity:1;"
       d="M 182.054688 18.289062 C 182.054688 13.5625 185.671875 10.152344 190.53125 10.152344 C 193.109375 10.152344 195.324219 11.078125 196.792969 12.796875 L 194.894531 14.582031 C 193.742188 13.339844 192.316406 12.726562 190.667969 12.726562 C 187.390625 12.726562 185.015625 15.035156 185.015625 18.289062 C 185.015625 21.542969 187.390625 23.847656 190.667969 23.847656 C 192.316406 23.847656 193.742188 23.238281 194.894531 21.972656 L 196.792969 23.78125 C 195.324219 25.5 193.109375 26.425781 190.507812 26.425781 C 185.671875 26.425781 182.054688 23.011719 182.054688 18.289062 "
       id="path41" />
    <path
       style=" stroke:none;fill-rule:nonzero;fill:rgb(25.881958%,61.959839%,85.096741%);fill-opacity:1;"
       d="M 103.421875 13.316406 C 103.421875 10.484375 101.585938 8.835938 97.949219 8.835938 L 93.101562 8.835938 L 93.101562 17.757812 L 97.949219 17.757812 C 101.585938 17.757812 103.421875 16.105469 103.421875 13.316406 Z M 109.445312 13.316406 C 109.445312 19.046875 105.148438 22.609375 98.28125 22.609375 L 93.101562 22.609375 L 93.101562 29.695312 L 87.152344 29.695312 L 87.152344 3.984375 L 98.28125 3.984375 C 105.148438 3.984375 109.445312 7.546875 109.445312 13.316406 "
       id="path43" />
    <path
       style=" stroke:none;fill-rule:nonzero;fill:rgb(25.881958%,61.959839%,85.096741%);fill-opacity:1;"
       d="M 123.027344 23.453125 L 123.027344 21.433594 L 119.097656 21.433594 C 116.414062 21.433594 115.570312 22.425781 115.570312 23.746094 C 115.570312 25.179688 116.78125 26.132812 118.804688 26.132812 C 120.714844 26.132812 122.367188 25.253906 123.027344 23.453125 Z M 128.757812 18.421875 L 128.757812 29.695312 L 123.394531 29.695312 L 123.394531 27.234375 C 122.328125 29.035156 120.273438 29.992188 117.371094 29.992188 C 112.742188 29.992188 109.988281 27.421875 109.988281 24.003906 C 109.988281 20.515625 112.449219 18.089844 118.472656 18.089844 L 123.027344 18.089844 C 123.027344 15.628906 121.558594 14.195312 118.472656 14.195312 C 116.378906 14.195312 114.210938 14.894531 112.777344 16.035156 L 110.722656 12.027344 C 112.890625 10.484375 116.085938 9.640625 119.242188 9.640625 C 125.269531 9.640625 128.757812 12.433594 128.757812 18.421875 "
       id="path45" />
    <path
       style=" stroke:none;fill-rule:nonzero;fill:rgb(25.881958%,61.959839%,85.096741%);fill-opacity:1;"
       d="M 143.488281 9.640625 L 143.488281 14.929688 C 143.011719 14.894531 142.644531 14.855469 142.203125 14.855469 C 139.046875 14.855469 136.953125 16.585938 136.953125 20.367188 L 136.953125 29.695312 L 131.222656 29.695312 L 131.222656 9.9375 L 136.695312 9.9375 L 136.695312 12.542969 C 138.089844 10.632812 140.441406 9.640625 143.488281 9.640625 "
       id="path47" />
    <path
       style=" stroke:none;fill-rule:nonzero;fill:rgb(25.881958%,61.959839%,85.096741%);fill-opacity:1;"
       d="M 161.03125 28.195312 C 159.855469 29.039062 157.449219 29.992188 155.683594 29.992188 C 151.019531 29.992188 148.300781 27.601562 148.300781 22.902344 L 148.300781 14.785156 L 145.253906 14.785156 L 145.253906 10.375 L 148.300781 10.375 L 148.300781 5.5625 L 154.03125 5.5625 L 154.03125 10.375 L 158.953125 10.375 L 158.953125 14.785156 L 154.03125 14.785156 L 154.03125 22.828125 C 154.03125 24.519531 154.949219 25.4375 156.492188 25.4375 C 157.339844 25.4375 158.28125 24.902344 158.90625 24.421875 L 161.03125 28.195312 "
       id="path49" />
    <path
       style=" stroke:none;fill-rule:nonzero;fill:rgb(25.881958%,61.959839%,85.096741%);fill-opacity:1;"
       d="M 55.890625 13.375 C 55.890625 10.527344 54.042969 8.863281 50.382812 8.863281 L 45.5 8.863281 L 45.5 17.851562 L 50.382812 17.851562 C 54.042969 17.851562 55.890625 16.1875 55.890625 13.375 Z M 61.957031 13.375 C 61.957031 19.144531 57.628906 22.730469 50.714844 22.730469 L 45.5 22.730469 L 45.5 29.867188 L 39.511719 29.867188 L 39.511719 3.984375 L 50.714844 3.984375 C 57.628906 3.984375 61.957031 7.570312 61.957031 13.375 "
       id="path51" />
    <path
       style=" stroke:none;fill-rule:nonzero;fill:rgb(25.881958%,61.959839%,85.096741%);fill-opacity:1;"
       d="M 85.769531 9.976562 L 76.78125 31.089844 C 74.859375 35.894531 72.121094 37.339844 68.535156 37.339844 C 66.503906 37.339844 64.285156 36.671875 62.988281 35.527344 L 65.097656 31.421875 C 65.984375 32.199219 67.203125 32.679688 68.351562 32.679688 C 69.941406 32.679688 70.828125 31.976562 71.605469 30.203125 L 71.679688 30.015625 L 63.0625 9.976562 L 69.015625 9.976562 L 74.601562 23.472656 L 80.222656 9.976562 L 85.769531 9.976562 "
       id="path53" />
  </g>
</svg>
